<svg xmlns="http://www.w3.org/2000/svg" viewBox="0 0 168.36 50.74"><defs><style>.cls-1{fill:#fff;fill-rule:evenodd;}</style></defs><title>Prancheta 36</title><g id="Layer_2" data-name="Layer 2"><path class="cls-1" d="M104.45,39.68c-9.78,7.22-24,11.06-36.18,11.06A65.47,65.47,0,0,1,24.08,33.88c-.92-.83-.1-2,1-1.32A88.94,88.94,0,0,0,69.3,44.3,88,88,0,0,0,103,37.39C104.68,36.69,106.07,38.48,104.45,39.68Z"/><path class="cls-1" d="M108.52,35c-1.25-1.6-8.27-.76-11.42-.38-1,.11-1.1-.72-.24-1.32,5.6-3.93,14.77-2.8,15.84-1.48s-.28,10.53-5.53,14.92c-.81.68-1.57.32-1.22-.58C107.13,43.24,109.77,36.63,108.52,35Z"/><path class="cls-1" d="M97.32,5.54V1.72a.94.94,0,0,1,1-1h17.13a1,1,0,0,1,1,1V5a5.35,5.35,0,0,1-1.29,2.41l-8.87,12.67a19,19,0,0,1,9.77,2.1,1.75,1.75,0,0,1,.91,1.49v4.08c0,.56-.61,1.21-1.26.87a19.73,19.73,0,0,0-18.1,0c-.6.32-1.22-.32-1.22-.89V23.88A4.61,4.61,0,0,1,97,21.25L107.26,6.51H98.31A1,1,0,0,1,97.32,5.54Z"/><path class="cls-1" d="M34.84,29.41H29.63a1,1,0,0,1-.93-.88V1.79a1,1,0,0,1,1-1h4.85a1,1,0,0,1,.95.9V5.21h.1c1.26-3.38,3.65-5,6.86-5s5.3,1.58,6.76,5a7.7,7.7,0,0,1,13.23-2c1.65,2.25,1.31,5.51,1.31,8.39V28.45a1,1,0,0,1-1,1h-5.2a1,1,0,0,1-.94-1V14.27a34.2,34.2,0,0,0-.15-5A2.72,2.72,0,0,0,53.41,7a3.46,3.46,0,0,0-3.11,2.19,16.18,16.18,0,0,0-.49,5.12V28.45a1,1,0,0,1-1,1H43.6a1,1,0,0,1-.94-1V14.27c0-3,.49-7.37-3.21-7.37s-3.6,4.28-3.6,7.37V28.45A1,1,0,0,1,34.84,29.41Z"/><path class="cls-1" d="M131.15.26c7.73,0,11.92,6.64,11.92,15.08,0,8.16-4.62,14.63-11.92,14.63-7.59,0-11.72-6.64-11.72-14.91S123.61.26,131.15.26Zm0,5.46c-3.84,0-4.09,5.23-4.09,8.5s0,10.24,4,10.24,4.23-5.63,4.23-9.06a24.74,24.74,0,0,0-.78-7.09A3.26,3.26,0,0,0,131.2,5.72Z"/><path class="cls-1" d="M153.1,29.41h-5.19a1,1,0,0,1-.94-1V1.7a1,1,0,0,1,1-.87h4.83a1,1,0,0,1,.93.75V5.66h.1c1.46-3.66,3.5-5.4,7.1-5.4A6.83,6.83,0,0,1,167,3.41c1.36,2.14,1.36,5.74,1.36,8.33V28.57a1,1,0,0,1-1,.84h-5.22a1,1,0,0,1-.93-.84V14c0-2.93.34-7.2-3.26-7.2a3.41,3.41,0,0,0-3,2.14,11.89,11.89,0,0,0-.83,5.07v14.4A1,1,0,0,1,153.1,29.41Z"/><path class="cls-1" d="M83.67,16.64c0,2,0,3.72-1,5.53a4.23,4.23,0,0,1-3.61,2.37c-2,0-3.17-1.52-3.17-3.78,0-4.44,4-5.25,7.75-5.25Zm5.25,12.71a1.08,1.08,0,0,1-1.23.12,12.72,12.72,0,0,1-3-3.47c-2.86,2.91-4.89,3.79-8.59,3.79-4.39,0-7.8-2.71-7.8-8.12a8.85,8.85,0,0,1,5.56-8.52c2.83-1.24,6.78-1.47,9.8-1.8v-.68c0-1.24.1-2.71-.63-3.78a3.48,3.48,0,0,0-2.92-1.35,4,4,0,0,0-4.19,3.13,1.1,1.1,0,0,1-.91,1L70,9.07A.92.92,0,0,1,69.19,8c1.16-6.13,6.69-8,11.65-8,2.53,0,5.85.68,7.85,2.59C91.22,5,91,8.12,91,11.56v8.12c0,2.44,1,3.51,2,4.83a1,1,0,0,1,0,1.38c-1.06.89-3,2.54-4,3.46Z"/><path class="cls-1" d="M15.35,16.64c0,2,0,3.72-1,5.53a4.23,4.23,0,0,1-3.61,2.37c-2,0-3.17-1.52-3.17-3.78,0-4.44,4-5.25,7.75-5.25Zm5.25,12.71a1.08,1.08,0,0,1-1.23.12,12.71,12.71,0,0,1-3-3.47c-2.86,2.91-4.89,3.79-8.59,3.79-4.39,0-7.8-2.71-7.8-8.12a8.85,8.85,0,0,1,5.56-8.52c2.83-1.24,6.78-1.47,9.8-1.8v-.68c0-1.24.1-2.71-.63-3.78A3.48,3.48,0,0,0,11.8,5.53,4,4,0,0,0,7.61,8.66a1.1,1.1,0,0,1-.91,1L1.65,9.07A.92.92,0,0,1,.88,8C2,1.85,7.57,0,12.53,0c2.54,0,5.85.68,7.85,2.59,2.53,2.37,2.29,5.53,2.29,9v8.12c0,2.44,1,3.51,2,4.83a1,1,0,0,1,0,1.38c-1.06.89-3,2.54-4,3.46Z"/></g></svg>