<svg xmlns="http://www.w3.org/2000/svg" viewBox="0 0 58.23 60.63"><defs><style>.cls-1{fill:none;stroke:#fff;stroke-miterlimit:10;}.cls-2{fill:#fff;}</style></defs><title>calendarioPrancheta 14</title><g id="Layer_2" data-name="Layer 2"><rect class="cls-1" x="10.27" y="14.13" width="37.69" height="37.69" rx="6" ry="6"/><line class="cls-1" x1="20.12" y1="8.32" x2="20.12" y2="18.82"/><line class="cls-1" x1="29.12" y1="8.32" x2="29.12" y2="18.82"/><line class="cls-1" x1="38.12" y1="8.32" x2="38.12" y2="18.82"/><path class="cls-2" d="M27.12,41.73H19.54a1.45,1.45,0,0,1-1.06-2.45l4.44-4.73a12,12,0,0,0,1.47-1.9,3.05,3.05,0,0,0,.48-1.54,2.29,2.29,0,0,0-.5-1.56A1.82,1.82,0,0,0,22.92,29a2,2,0,0,0-1.59.69,2.35,2.35,0,0,0-.44.81,1.45,1.45,0,1,1-2.73-1,5,5,0,0,1,.26-.53,4.6,4.6,0,0,1,1.84-1.77A5.62,5.62,0,0,1,23,26.6a5.29,5.29,0,0,1,3.58,1.11,3.92,3.92,0,0,1,1.28,3.13,5,5,0,0,1-.57,2.26,12.56,12.56,0,0,1-2,2.68L21.9,39.34h5.22a1.19,1.19,0,0,1,0,2.39"/><path class="cls-2" d="M33.15,34.11A1.16,1.16,0,0,1,34.31,33h.42a2.22,2.22,0,0,0,1.67-.56,2.06,2.06,0,0,0,.54-1.5,1.83,1.83,0,0,0-.54-1.41,2.09,2.09,0,0,0-1.48-.5,2.19,2.19,0,0,0-1.42.47,1.6,1.6,0,0,0-.37.43,1.46,1.46,0,0,1-1.24.79h-.12a1.37,1.37,0,0,1-1.18-2.08v0a4.2,4.2,0,0,1,1.76-1.45,5.89,5.89,0,0,1,2.5-.52,5.58,5.58,0,0,1,3.71,1.13,3.87,3.87,0,0,1,1.34,3.12,3.14,3.14,0,0,1-.62,1.89,4.07,4.07,0,0,1-1.64,1.32,3.71,3.71,0,0,1,1.88,1.35,3.67,3.67,0,0,1,.62,2.13,3.93,3.93,0,0,1-1.45,3.19,5.84,5.84,0,0,1-3.84,1.2,5.53,5.53,0,0,1-3.66-1.18,4,4,0,0,1-.8-.89,1.45,1.45,0,0,1,1.23-2.22,1.5,1.5,0,0,1,1.31.85,1.8,1.8,0,0,0,.43.53,2.63,2.63,0,0,0,3.21,0,1.92,1.92,0,0,0,.6-1.48q0-2.24-2.46-2.24h-.41a1.16,1.16,0,0,1-1.16-1.16"/></g></svg>