<svg xmlns="http://www.w3.org/2000/svg" viewBox="0 0 58.23 60.63"><defs><style>.cls-1{fill:none;stroke:#fff;stroke-miterlimit:10;stroke-width:2px;}</style></defs><title>conquistasPrancheta 14 cópia 5</title><g id="Layer_2" data-name="Layer 2"><path class="cls-1" d="M47.42,5.16C46.68,26.6,33.1,39.71,29.13,43.1c-4-3.38-17.54-16.49-18.28-37.94Z"/><path class="cls-1" d="M31.42,40.86v2.47a10.85,10.85,0,0,0,10.85,10,4.37,4.37,0,0,1,3.79,2.19H12.2A4.38,4.38,0,0,1,16,53.28a10.85,10.85,0,0,0,10.86-10V40.86"/><path class="cls-1" d="M11.25,10.05A9.37,9.37,0,1,0,17,27.83"/><path class="cls-1" d="M41.27,27.83A9.37,9.37,0,1,0,47,10.06"/></g></svg>