<svg xmlns="http://www.w3.org/2000/svg" viewBox="0 0 58.23 60.63"><defs><style>.cls-1{fill:none;stroke:#fff;stroke-miterlimit:10;stroke-width:2px;}</style></defs><title>Prancheta 14 cópia 14</title><g id="Layer_2" data-name="Layer 2"><path class="cls-1" d="M14.15,26.72H7a1.44,1.44,0,0,0-1.44,1.44v23A1.44,1.44,0,0,0,7,52.59h7.18a1.44,1.44,0,0,0,1.44-1.44v-23a1.44,1.44,0,0,0-1.44-1.44"/><path class="cls-1" d="M47.9,50.78A4.8,4.8,0,0,0,52.7,46V28.82A4.8,4.8,0,0,0,47.9,24H35.78c-.33-.92,4.86-1.72,3.32-12.27,0,0,0-.08,0-.13a3.35,3.35,0,0,0-.19-.89c0-.14,0-.26-.06-.4a1.2,1.2,0,0,0-.54-.83,3.65,3.65,0,0,0-6.59,2l-.06,0v3.62S21.07,26.85,21.07,29.6V46a4.8,4.8,0,0,0,4.8,4.8Z"/></g></svg>