<svg xmlns="http://www.w3.org/2000/svg" viewBox="0 0 92.08 87.73"><defs><style>.cls-1{fill:#fff;}</style></defs><title>Prancheta 32</title><g id="Layer_2" data-name="Layer 2"><path class="cls-1" d="M25.4,8.14A11.15,11.15,0,0,1,34.07,4,11,11,0,0,1,41.7,23L25.47,39.24,9.23,23A11,11,0,0,1,16.87,4,10.87,10.87,0,0,1,25.4,8.14Z"/><path class="cls-1" d="M45.25,30.17a8.77,8.77,0,0,1,6.11,2.16,7.2,7.2,0,0,1,2.39,5.6,7.23,7.23,0,0,1-2.39,5.61,8.74,8.74,0,0,1-6.11,2.17H39.78V30.17ZM43.57,42.84h1.68a4.44,4.44,0,0,0,3.41-1.33,5,5,0,0,0,1.24-3.56,5,5,0,0,0-1.24-3.56,4.44,4.44,0,0,0-3.41-1.33H43.57Z"/><path class="cls-1" d="M59.12,43.61a7.64,7.64,0,0,1-2.31-5.71,7.61,7.61,0,0,1,2.31-5.7,8.24,8.24,0,0,1,11.31,0,7.65,7.65,0,0,1,2.29,5.7,7.66,7.66,0,0,1-2.3,5.71,8.2,8.2,0,0,1-11.3,0Zm8.63-2.46a4.63,4.63,0,0,0,1.12-3.25,4.63,4.63,0,0,0-1.12-3.25,4.28,4.28,0,0,0-6,0,4.62,4.62,0,0,0-1.12,3.25,4.62,4.62,0,0,0,1.12,3.25,4.28,4.28,0,0,0,6,0Z"/><path class="cls-1" d="M86.14,30.13V33H80.52v3.34h5v2.88h-5v3.61h5.62v2.88H76.73V30.13Z"/><path class="cls-1" d="M57.31,49.17V64.71H53.52V55.95l-3.61,8.77H47.1l-3.61-8.77v8.77H39.7V49.17H44l4.47,10.72L53,49.17Z"/><path class="cls-1" d="M70,49.13V52H64.41v3.34h5v2.88h-5v3.61H70v2.88H60.63V49.13Z"/><path class="cls-1" d="M73.22,58.45V49.17H77v9.28a3.08,3.08,0,0,0,.69,2.15,2.59,2.59,0,0,0,2,.75,2.66,2.66,0,0,0,2-.75,3,3,0,0,0,.71-2.15V49.17h3.79v9.28a6.42,6.42,0,0,1-1,3.55,5.79,5.79,0,0,1-2.44,2.18,7.48,7.48,0,0,1-3.2.69,6.55,6.55,0,0,1-4.56-1.68A6.06,6.06,0,0,1,73.22,58.45Z"/><path class="cls-1" d="M40,68.17h6.75a5.78,5.78,0,0,1,3.77,1.15,3.62,3.62,0,0,1,1.41,2.92q0,2.64-3.08,3.56a3.88,3.88,0,0,1,2.5,1.31,3.79,3.79,0,0,1,.93,2.55,3.6,3.6,0,0,1-1.36,3,5.9,5.9,0,0,1-3.8,1.1H40Zm3.79,2.88v3.37h2.48A2,2,0,0,0,47.59,74a1.54,1.54,0,0,0,.5-1.25,1.58,1.58,0,0,0-.5-1.26,1.94,1.94,0,0,0-1.32-.43Zm0,9.79h2.86a1.83,1.83,0,0,0,1.28-.46,1.65,1.65,0,0,0,.51-1.28A1.77,1.77,0,0,0,48,77.78a1.71,1.71,0,0,0-1.26-.49h-2.9Z"/><path class="cls-1" d="M64.67,68.13V71H59v3.34h5v2.88H59v3.61h5.62v2.88H55.26V68.13Z"/><path class="cls-1" d="M85.86,68.17V83.71H82.07V74.95l-3.61,8.77H75.65L72,74.95v8.77H68.25V68.17h4.34l4.47,10.72,4.45-10.72Z"/></g></svg>