<svg xmlns="http://www.w3.org/2000/svg" xmlns:xlink="http://www.w3.org/1999/xlink" viewBox="0 0 220.67 100.09"><defs><style>.cls-1{fill:#d60054;}.cls-2{fill:url(#Gradiente_sem_nome_39);}.cls-3{fill:url(#Gradiente_sem_nome_39-2);}.cls-4{fill:url(#Gradiente_sem_nome_39-3);}.cls-5{fill:url(#Gradiente_sem_nome_39-4);}</style><linearGradient id="Gradiente_sem_nome_39" x1="42.12" y1="50.79" x2="146.12" y2="36.13" gradientUnits="userSpaceOnUse"><stop offset="0" stop-color="#d60054"/><stop offset="1" stop-color="#2a2e89"/></linearGradient><linearGradient id="Gradiente_sem_nome_39-2" x1="4" y1="50.05" x2="117.57" y2="50.05" xlink:href="#Gradiente_sem_nome_39"/><linearGradient id="Gradiente_sem_nome_39-3" x1="58.38" y1="6.35" x2="84.23" y2="6.35" xlink:href="#Gradiente_sem_nome_39"/><linearGradient id="Gradiente_sem_nome_39-4" x1="0" y1="50.06" x2="58.89" y2="50.06" xlink:href="#Gradiente_sem_nome_39"/></defs><title>logoPrancheta 37</title><g id="Layer_2" data-name="Layer 2"><path class="cls-1" d="M125.18,47.93v3a6.61,6.61,0,0,1,6.12-3.19,7.86,7.86,0,0,1,4,1,7,7,0,0,1,2.74,2.9A8.64,8.64,0,0,1,141,48.78,8.42,8.42,0,0,1,150.82,50,8.82,8.82,0,0,1,153,56.33V68.14h-6.16v-11a4.18,4.18,0,0,0-1-3,4.32,4.32,0,0,0-5.69,0,4.18,4.18,0,0,0-1,3v11h-6.16v-11a4.18,4.18,0,0,0-1-3,4.32,4.32,0,0,0-5.69,0,4.18,4.18,0,0,0-1,3v11H119V47.93Z"/><path class="cls-1" d="M158.61,65.5a10.5,10.5,0,0,1-2.68-7.43,10.57,10.57,0,0,1,2.68-7.44,8.55,8.55,0,0,1,6.54-2.92,6.86,6.86,0,0,1,5.92,2.86V47.93h6.19V68.14h-6.19V65.21a7,7,0,0,1-6,3.19A8.47,8.47,0,0,1,158.61,65.5Zm6.48-24.81a5.49,5.49,0,0,1,2.64.81,5.16,5.16,0,0,0,2.1.82q1.34,0,1.56-1.63h3Q173.54,46,169.59,46a5.49,5.49,0,0,1-2.64-.81,5.17,5.17,0,0,0-2.1-.82q-1.34,0-1.59,1.63h-3Q161.15,40.69,165.1,40.68Zm4.64,21a4.92,4.92,0,0,0,1.34-3.7,4.86,4.86,0,0,0-1.34-3.68,4.31,4.31,0,0,0-6.16,0,4.92,4.92,0,0,0-1.34,3.7,4.86,4.86,0,0,0,1.34,3.68,4.31,4.31,0,0,0,6.16,0Z"/><path class="cls-1" d="M183.48,65.54A9.83,9.83,0,0,1,180.42,58a9.69,9.69,0,0,1,3-7.48,11.49,11.49,0,0,1,15.05,0,9.72,9.72,0,0,1,3,7.48,9.92,9.92,0,0,1-3,7.53A10.45,10.45,0,0,1,191,68.4,10.64,10.64,0,0,1,183.48,65.54ZM194,61.8A5.28,5.28,0,0,0,195.24,58,5.12,5.12,0,0,0,194,54.29,4.08,4.08,0,0,0,191,53a4,4,0,0,0-3,1.29A5.17,5.17,0,0,0,186.72,58,5.14,5.14,0,0,0,188,61.8a4.11,4.11,0,0,0,3,1.3A3.94,3.94,0,0,0,194,61.8Z"/><path class="cls-1" d="M203.32,54a5.53,5.53,0,0,1,2.28-4.49,9.67,9.67,0,0,1,6.18-1.81,10.29,10.29,0,0,1,6.29,1.77,6.11,6.11,0,0,1,2.54,4.85h-6.34a1.78,1.78,0,0,0-.72-1.43,3.58,3.58,0,0,0-1.85-.38q-2.43,0-2.43,1.49t3,1.85a24.19,24.19,0,0,1,5.47,1.56,4.74,4.74,0,0,1,3,4.56,5.51,5.51,0,0,1-2.43,4.62,10,10,0,0,1-6.12,1.79A10.66,10.66,0,0,1,206,66.71a6.17,6.17,0,0,1-2.68-5h6.34q.25,1.85,2.61,1.85a3,3,0,0,0,1.79-.51,1.54,1.54,0,0,0,.71-1.3q0-.8-1.18-1.27a16.07,16.07,0,0,0-2.84-.8q-1.67-.33-3.35-.82a6.39,6.39,0,0,1-2.86-1.7A4.36,4.36,0,0,1,203.32,54Z"/><path class="cls-1" d="M91,97.44a11.65,11.65,0,0,1,0-14.87,8.55,8.55,0,0,1,6.54-2.92,6.86,6.86,0,0,1,5.92,2.86V73.28h6.19v26.81h-6.19V97.15a7,7,0,0,1-6,3.19A8.47,8.47,0,0,1,91,97.44Zm11.12-3.77a4.92,4.92,0,0,0,1.34-3.7,4.86,4.86,0,0,0-1.34-3.68,4.31,4.31,0,0,0-6.16,0A4.92,4.92,0,0,0,94.6,90a4.86,4.86,0,0,0,1.34,3.68,4.31,4.31,0,0,0,6.16,0Z"/><path class="cls-1" d="M115.43,97.44a11.65,11.65,0,0,1,0-14.87A8.55,8.55,0,0,1,122,79.66a6.86,6.86,0,0,1,5.92,2.86V79.88h6.19v20.21h-6.19V97.15a7,7,0,0,1-6,3.19A8.47,8.47,0,0,1,115.43,97.44Zm11.12-3.77a4.92,4.92,0,0,0,1.34-3.7,4.86,4.86,0,0,0-1.34-3.68,4.31,4.31,0,0,0-6.16,0,4.92,4.92,0,0,0-1.34,3.7,4.86,4.86,0,0,0,1.34,3.68,4.31,4.31,0,0,0,6.16,0Z"/><path class="cls-1" d="M139.88,97.44a11.65,11.65,0,0,1,0-14.87,8.55,8.55,0,0,1,6.54-2.92,6.86,6.86,0,0,1,5.92,2.86V73.28h6.19v26.81h-6.19V97.15a7,7,0,0,1-6,3.19A8.47,8.47,0,0,1,139.88,97.44ZM151,93.68a4.92,4.92,0,0,0,1.34-3.7A4.86,4.86,0,0,0,151,86.31a4.31,4.31,0,0,0-6.16,0A4.92,4.92,0,0,0,143.5,90a4.86,4.86,0,0,0,1.34,3.68,4.31,4.31,0,0,0,6.16,0Z"/><path class="cls-1" d="M164.33,97.44a11.65,11.65,0,0,1,0-14.87,8.55,8.55,0,0,1,6.54-2.92,6.86,6.86,0,0,1,5.92,2.86V79.88H183v20.21H176.8V97.15a7,7,0,0,1-6,3.19A8.47,8.47,0,0,1,164.33,97.44Zm11.12-3.77A4.92,4.92,0,0,0,176.8,90a4.86,4.86,0,0,0-1.34-3.68,4.31,4.31,0,0,0-6.16,0A4.92,4.92,0,0,0,168,90a4.86,4.86,0,0,0,1.34,3.68,4.31,4.31,0,0,0,6.16,0Z"/><path class="cls-1" d="M186.21,86a5.53,5.53,0,0,1,2.28-4.49,9.67,9.67,0,0,1,6.18-1.81A10.29,10.29,0,0,1,201,81.43a6.11,6.11,0,0,1,2.54,4.85h-6.34a1.78,1.78,0,0,0-.72-1.43,3.58,3.58,0,0,0-1.85-.38q-2.43,0-2.43,1.49t3,1.85a24.19,24.19,0,0,1,5.47,1.56,4.74,4.74,0,0,1,3,4.56,5.51,5.51,0,0,1-2.43,4.62,10,10,0,0,1-6.12,1.79,10.66,10.66,0,0,1-6.16-1.68,6.17,6.17,0,0,1-2.68-5h6.34q.25,1.85,2.61,1.85a3,3,0,0,0,1.79-.51,1.54,1.54,0,0,0,.71-1.3q0-.8-1.18-1.27a16.07,16.07,0,0,0-2.84-.8q-1.67-.33-3.35-.82a6.39,6.39,0,0,1-2.86-1.7A4.36,4.36,0,0,1,186.21,86Z"/><path class="cls-2" d="M22.7,63.09l2.55,2.72a7.85,7.85,0,0,0,7.34,10.06,7.88,7.88,0,0,0,7.65,8.38h.26A7.78,7.78,0,0,0,42.65,90,7.88,7.88,0,0,0,50,92.26c.14.16.28.32.42.46L55.69,98a7.35,7.35,0,0,0,12.56-5.18,7.36,7.36,0,0,0,7.31-7.33,7.35,7.35,0,0,0,7.31-7.32,7.36,7.36,0,0,0,7.3-8l17-16.33A32.36,32.36,0,0,0,117.52,32.2a29.67,29.67,0,0,0-8.24-22.27A31.71,31.71,0,0,0,64.51,8.7l-4.24,4L55.63,7.81l-.14-.13C43.27-3,25.58-2.48,13.44,9A29.66,29.66,0,0,0,4,30.81,32.37,32.37,0,0,0,13.12,53L22.7,63.09Z"/><path class="cls-3" d="M109.29,9.93A31.71,31.71,0,0,0,64.51,8.7l-4.24,4L55.63,7.81l-.14-.13C43.27-3,25.58-2.48,13.44,9A29.66,29.66,0,0,0,4,30.81,32.37,32.37,0,0,0,13.12,53L22.7,63.09h0l2.55,2.72a7.85,7.85,0,0,0,7.34,10.06,7.88,7.88,0,0,0,7.65,8.38h.26A7.78,7.78,0,0,0,42.65,90,7.88,7.88,0,0,0,50,92.26c.14.16.28.32.42.46L55.69,98a7.35,7.35,0,0,0,12.56-5.18,7.36,7.36,0,0,0,7.31-7.33,7.35,7.35,0,0,0,7.31-7.32,7.36,7.36,0,0,0,7.3-8l17-16.33A32.36,32.36,0,0,0,117.52,32.2,29.67,29.67,0,0,0,109.29,9.93ZM8.37,30.8a25.34,25.34,0,0,1,8.07-18.6C26.89,2.3,42.06,1.76,52.54,10.9l6,6.32h0L79.11,38.67a4.5,4.5,0,1,1-6.53,6.19L55.73,27.08a2.14,2.14,0,0,0-2.52-.47c-.23.11-5.76,2.48-13.42-5.62a2.18,2.18,0,1,0-3.17,3c7.52,7.94,14,7.74,16.88,7.08l3.25,3.43L27.68,62,25.88,60.1h0L16.29,50A28,28,0,0,1,8.37,30.8Zm22,34.65L59.75,37.68l4.83,5.1L35.23,70.56a3.52,3.52,0,0,1-4.83-5.1Zm10,14.43a3.49,3.49,0,0,1-2.45-1.1A3.43,3.43,0,0,1,38,73.9l0,0,.15-.13L67.59,45.95l1.81,1.91a8.8,8.8,0,0,0,4.21,2.47,2.17,2.17,0,0,0-1.17.57l-29.58,28A3.49,3.49,0,0,1,40.36,79.88ZM63,94.87a3,3,0,0,1-4.23,0l-5.24-5.24a2.82,2.82,0,0,1-.26-.29,3,3,0,0,1,4.49-3.93L63,90.64A3,3,0,0,1,63,94.87Zm7.31-7.33a3,3,0,0,1-4.23,0L60.86,82.3a3,3,0,1,1,4.23-4.23l5.23,5.23a3,3,0,0,1,0,4.23Zm7.31-7.33a3,3,0,0,1-4.23,0L68.17,75a3,3,0,1,1,4.23-4.23L77.63,76a3,3,0,0,1,0,4.23Zm7.32-7.32a3,3,0,0,1-4.23,0l-5.23-5.23a3,3,0,1,1,4.23-4.23l5.23,5.23a3,3,0,0,1,0,4.23Zm28.21-40.94a28,28,0,0,1-9,18.71L88.32,65.88c-.09-.1-.18-.21-.28-.31l-5.23-5.23a7.36,7.36,0,0,0-12.56,5.16,7.35,7.35,0,0,0-7.32,7.33,7.35,7.35,0,0,0-7.31,7.33,7.36,7.36,0,0,0-7.3,7,7.43,7.43,0,0,0,0,1A3.53,3.53,0,0,1,45.82,87,3.43,3.43,0,0,1,46,82.09a2.14,2.14,0,0,0,.33-.4L75.45,54.08a2.16,2.16,0,0,0-.47-3.5,8.86,8.86,0,0,0,7.29-14.92l-19-19.84,4.21-3.94a27.34,27.34,0,0,1,38.61,1.06A25.34,25.34,0,0,1,113.16,31.95Z"/><path class="cls-4" d="M60.27,12.66l4.24-4A31.51,31.51,0,0,1,84.23.11,31.57,31.57,0,0,0,60.51,8.7l-2.13,2Z"/><path class="cls-5" d="M55.69,98l-5.23-5.23c-.14-.14-.28-.3-.42-.46A7.88,7.88,0,0,1,42.65,90a7.78,7.78,0,0,1-2.16-5.74h-.26a7.88,7.88,0,0,1-7.65-8.37,7.85,7.85,0,0,1-7.34-10.06L22.7,63.09h0L13.12,53A32.37,32.37,0,0,1,4,30.81,29.66,29.66,0,0,1,13.44,9a32.12,32.12,0,0,1,20-9,31.73,31.73,0,0,0-24,9A29.66,29.66,0,0,0,0,30.81,32.37,32.37,0,0,0,9.12,53L18.7,63.09h0l2.55,2.72a7.85,7.85,0,0,0,7.34,10.06,7.88,7.88,0,0,0,7.65,8.38h.26A7.78,7.78,0,0,0,38.65,90,7.88,7.88,0,0,0,46,92.26c.14.16.28.32.42.46L51.69,98a7.31,7.31,0,0,0,5.2,2.16,7.38,7.38,0,0,0,2-.28A7.31,7.31,0,0,1,55.69,98Z"/></g></svg>