<svg xmlns="http://www.w3.org/2000/svg" xmlns:xlink="http://www.w3.org/1999/xlink" viewBox="0 0 58.23 60.63"><defs><style>.cls-1{fill:url(#linear-gradient);}.cls-2{fill:none;stroke:#fff;stroke-miterlimit:10;}</style><linearGradient id="linear-gradient" x1="29.12" y1="12.62" x2="29.12" y2="47.56" gradientUnits="userSpaceOnUse"><stop offset="0" stop-color="#7bff4d"/><stop offset="1" stop-color="#8bffac"/></linearGradient></defs><title>nivel-iconPrancheta 14 cópia 6</title><g id="Layer_2" data-name="Layer 2"><path class="cls-1" d="M18,11a10.68,10.68,0,0,0-7.39,18.4L29.12,47.93l18.5-18.5A10.68,10.68,0,0,0,40.28,11a10.88,10.88,0,0,0-8.42,4L29,18.5,26.2,15A10.55,10.55,0,0,0,18,11Z"/><path class="cls-2" d="M29,12.71A14.47,14.47,0,0,1,40.28,7.36,14.31,14.31,0,0,1,50.18,32L29.12,53.07,8.05,32A14.31,14.31,0,0,1,18,7.36,14.1,14.1,0,0,1,29,12.71Z"/></g></svg>