<svg xmlns="http://www.w3.org/2000/svg" viewBox="0 0 167.29 34.32"><defs><style>.cls-1{fill:#fff;}</style></defs><title>Prancheta 35</title><g id="Layer_2" data-name="Layer 2"><path class="cls-1" d="M26.31.84V20.1c0,6.43-2.85,9.1-9.52,9.1s-9.52-2.67-9.52-9.1V0H.84A.75.75,0,0,0,0,.84V20.41C0,31.16,6.85,34.92,16.79,34.92s16.79-3.76,16.79-14.51V0H27.16A.75.75,0,0,0,26.31.84Z"/><path class="cls-1" d="M119.51,5.59a.88.88,0,0,0,.95-.56l1.86-4.6c.11-.28,0-.42-.28-.42H96.15c-2.42,0-3.34.74-3.34,2.39v29.9c0,1.41.7,2,2.56,2h24.14a.89.89,0,0,0,.95-.56l1.86-4.6c.11-.28,0-.42-.28-.42H99.94V22.66c0-2.11,1.16-3.06,4.29-3.06h9.59a.88.88,0,0,0,.95-.56l1.79-4.43c.11-.28,0-.42-.28-.42H99.94V5.59Z"/><path class="cls-1" d="M73.93,16.23c2.81-1.48,4-4.25,4-7.52C77.9,1.12,71.72,0,65.33,0H50.71c-2.42,0-3.34.74-3.34,2.39v29.9c0,1.41.7,2,2.56,2h18c6.78,0,11.63-2.63,11.63-9.49C79.55,20.73,77.8,17.25,73.93,16.23ZM54.5,5.52H65.85c3.79,0,4.85,1.43,4.85,4.39s-1.05,4.39-4.85,4.39H54.5ZM67.19,28.81H54.5V22.52c0-2.11,1.16-3.06,4.29-3.06h8.4c4,0,5.16,1.55,5.16,4.71S71.23,28.81,67.19,28.81Z"/><path class="cls-1" d="M167.2,33.73l-7.69-13.21c3.83-1,6.92-3.51,6.92-9.94,0-8.33-5.16-10.58-13.7-10.58H138c-2.42,0-3.34.74-3.34,2.39V33.48a.75.75,0,0,0,.84.84h6.29v-10c0-2.11,1.16-3.06,4.29-3.06h6.32l7,12.51a1,1,0,0,0,.95.56h6.53C167.34,34.32,167.34,33.94,167.2,33.73ZM153.78,15.91H141.84V5.52h11.94c4.46,0,5.45,1.72,5.45,5.2S158.24,15.91,153.78,15.91Z"/></g></svg>